<svg xmlns="http://www.w3.org/2000/svg" xmlns:xlink="http://www.w3.org/1999/xlink" version="1.1" x="0px" y="0px" width="100px" height="100px" viewBox="0 0 100 100" enable-background="new 0 0 100 100" xml:space="preserve">
<g id="Captions">
</g>
<g id="Your_Icon">
	<path fill="#000000" d="M70.617,6.296c-10.321,0-16.836,5.023-20.617,9.565c-3.781-4.542-10.295-9.565-20.62-9.565   C11.805,6.296,0,22.577,0,37.782c0,22.135,42.518,51.801,47.366,55.11c0.794,0.541,1.714,0.812,2.634,0.812s1.84-0.271,2.634-0.812   C57.482,89.583,100,59.917,100,37.782C100,22.577,88.193,6.296,70.617,6.296z M49.998,83.338   C33.255,71.43,9.344,50.116,9.344,37.782c0-9.283,6.963-22.142,20.036-22.142c11.892,0,16.09,10.27,16.252,10.677   c0.683,1.804,2.412,2.984,4.341,3c0.011,0,0.022,0,0.033,0c1.917,0,3.646-1.187,4.352-2.969c0.172-0.438,4.372-10.708,16.26-10.708   c13.074,0,20.039,12.858,20.039,22.142C90.656,50.102,66.743,71.421,49.998,83.338z"/>
	<path fill="#000000" d="M56.017,38.611c-4.5,0-6.017,3.994-6.017,3.994s-1.515-3.994-6.017-3.994c-4.499,0-7.209,4.289-7.209,7.824   C36.774,52.36,50,61.389,50,61.389s13.226-9.028,13.226-14.953C63.226,42.9,60.517,38.611,56.017,38.611z"/>
</g>
</svg>